<svg width="16" height="19" viewBox="0 0 16 19" fill="none" xmlns="http://www.w3.org/2000/svg">
<path d="M3.83333 6.66665V4.99998C3.83333 3.89491 4.27232 2.8351 5.05372 2.0537C5.83512 1.2723 6.89493 0.833313 8 0.833313C9.10507 0.833313 10.1649 1.2723 10.9463 2.0537C11.7277 2.8351 12.1667 3.89491 12.1667 4.99998V6.66665H14.6667C14.8877 6.66665 15.0996 6.75444 15.2559 6.91072C15.4122 7.067 15.5 7.27897 15.5 7.49998V17.5C15.5 17.721 15.4122 17.933 15.2559 18.0892C15.0996 18.2455 14.8877 18.3333 14.6667 18.3333H1.33333C1.11232 18.3333 0.900358 18.2455 0.744078 18.0892C0.587797 17.933 0.5 17.721 0.5 17.5V7.49998C0.5 7.27897 0.587797 7.067 0.744078 6.91072C0.900358 6.75444 1.11232 6.66665 1.33333 6.66665H3.83333ZM3.83333 8.33331H2.16667V16.6666H13.8333V8.33331H12.1667V9.99998H10.5V8.33331H5.5V9.99998H3.83333V8.33331ZM5.5 6.66665H10.5V4.99998C10.5 4.33694 10.2366 3.70105 9.76777 3.23221C9.29893 2.76337 8.66304 2.49998 8 2.49998C7.33696 2.49998 6.70107 2.76337 6.23223 3.23221C5.76339 3.70105 5.5 4.33694 5.5 4.99998V6.66665Z" fill="white"/>
</svg>
